<?xml version="1.0" standalone="no"?>
<!DOCTYPE svg PUBLIC "-//W3C//DTD SVG 20010904//EN"
 "http://www.w3.org/TR/2001/REC-SVG-20010904/DTD/svg10.dtd">
<svg version="1.0" xmlns="http://www.w3.org/2000/svg"
 width="980.000000pt" height="982.000000pt" viewBox="0 0 980.000000 982.000000"
 preserveAspectRatio="xMidYMid meet">

<g transform="translate(0.000000,982.000000) scale(0.100000,-0.100000)"
fill="#000000" stroke="none">
<path d="M7166 9799 c-457 -47 -882 -222 -1256 -517 -120 -94 -2150 -2122
-2244 -2242 -212 -269 -370 -584 -451 -898 -93 -361 -100 -771 -19 -1130 83
-370 256 -721 500 -1012 189 -225 314 -300 499 -300 285 0 508 222 507 505 0
158 -40 246 -176 396 -190 207 -306 445 -351 718 -27 161 -17 397 23 554 47
182 123 341 234 493 57 76 1954 1984 2083 2093 184 157 388 257 625 308 120
26 420 25 540 0 194 -42 395 -131 540 -241 106 -79 259 -238 323 -333 229
-344 295 -765 181 -1161 -31 -109 -117 -288 -185 -390 -38 -55 -199 -224 -564
-592 -551 -556 -557 -563 -590 -701 -41 -175 9 -352 136 -478 159 -160 398
-195 603 -89 51 27 143 114 567 537 278 278 536 544 573 591 381 479 573 1084
528 1667 -26 345 -94 596 -242 898 -123 251 -261 445 -453 636 -366 365 -836
601 -1337 674 -135 20 -465 28 -594 14z"/>
<path d="M5471 6104 c-240 -64 -409 -319 -371 -558 20 -128 58 -202 159 -311
102 -110 165 -198 230 -325 116 -226 157 -414 148 -679 -6 -176 -19 -249 -67
-392 -55 -166 -137 -308 -261 -454 -79 -93 -1979 -1992 -2054 -2052 -186 -151
-414 -251 -660 -290 -122 -19 -371 -13 -485 12 -167 37 -340 111 -485 206
-100 66 -304 269 -368 366 -102 154 -170 316 -209 495 -18 84 -22 135 -22 278
0 248 35 401 140 614 87 175 122 215 659 756 551 556 557 563 590 701 87 370
-244 701 -614 614 -140 -33 -145 -37 -692 -584 -278 -278 -536 -544 -573 -591
-273 -343 -446 -741 -513 -1180 -24 -160 -24 -501 1 -660 41 -273 107 -483
226 -725 124 -255 262 -447 458 -641 366 -362 824 -592 1332 -669 164 -25 429
-30 602 -11 465 49 873 217 1248 514 123 97 2162 2136 2251 2250 261 338 416
688 490 1107 27 154 36 454 20 621 -48 473 -234 921 -536 1289 -155 188 -253
265 -386 300 -68 19 -188 18 -258 -1z"/>
</g>
</svg>
