<?xml version="1.0" standalone="no"?>
<!DOCTYPE svg PUBLIC "-//W3C//DTD SVG 20010904//EN"
 "http://www.w3.org/TR/2001/REC-SVG-20010904/DTD/svg10.dtd">
<svg version="1.0" xmlns="http://www.w3.org/2000/svg"
 width="16.000000pt" height="16.000000pt" viewBox="0 0 16.000000 16.000000"
 preserveAspectRatio="xMidYMid meet">

<g transform="translate(0.000000,16.000000) scale(0.100000,-0.100000)"
fill="#000000" stroke="none">
<path d="M76 131 c-28 -29 -32 -61 -9 -68 7 -3 9 3 6 17 -7 25 22 60 49 60 21
0 24 -29 6 -49 -11 -11 -10 -13 1 -9 25 7 37 36 25 56 -18 28 -47 25 -78 -7z"/>
<path d="M87 80 c7 -25 -22 -60 -49 -60 -21 0 -24 29 -5 49 10 11 9 13 -2 9
-25 -7 -37 -36 -25 -56 18 -27 44 -26 75 4 30 28 36 64 12 71 -7 3 -9 -3 -6
-17z"/>
</g>
</svg>
